# xmcd
#
# Track frame offsets:
#	150
#	13116
#	28990
#	46784
#	63410
#	76889
#	93153
#	107776
#	124251
#
# Disc length: 1894 seconds
# Revision: 0
# Processed by: cddbd v1.5.2PL0 Copyright (c) Steve Scherf et al.
# Submitted via: dBpowerAMP V12.0
#
DISCID=6d076409
DTITLE=Genevieve Chadwick - Playing For Change Presents Genevieve Chadwick
DYEAR=2014
DGENRE=Blues
TTITLE0=Down To The Bone
TTITLE1=Coat For The Winter
TTITLE2=Weigh Me Down
TTITLE3=Alright
TTITLE4=Set Me Free
TTITLE5=Try To Be
TTITLE6=In The Middle
TTITLE7=So Long
TTITLE8=By Your Way
EXTD=
EXTT0=
EXTT1=
EXTT2=
EXTT3=
EXTT4=
EXTT5=
EXTT6=
EXTT7=
EXTT8=
PLAYORDER=
